<?xml version="1.0" standalone="no"?>
<!DOCTYPE svg PUBLIC "-//W3C//DTD SVG 20010904//EN"
 "http://www.w3.org/TR/2001/REC-SVG-20010904/DTD/svg10.dtd">
<svg version="1.0" xmlns="http://www.w3.org/2000/svg"
 width="725.000000pt" height="419.000000pt" viewBox="0 0 725.000000 419.000000"
 preserveAspectRatio="xMidYMid meet">

<g transform="translate(0.000000,419.000000) scale(0.100000,-0.100000)"
fill="#000000" stroke="none">
<path d="M2304 4034 c-26 -24 -50 -85 -59 -149 -11 -81 -13 -85 -48 -85 -27 0
-33 -4 -35 -24 -1 -14 -19 -98 -41 -188 -22 -90 -45 -190 -51 -223 -6 -33 -14
-68 -16 -77 -5 -16 2 -18 54 -18 54 0 60 -2 65 -22 3 -13 69 -349 147 -748 77
-399 143 -732 146 -740 4 -11 15 -4 42 28 20 23 42 42 48 42 6 0 14 -21 18
-46 15 -109 61 -228 166 -423 47 -89 82 -126 260 -280 269 -232 558 -394 912
-511 250 -83 759 -177 1113 -205 l80 -7 48 -69 c84 -121 126 -129 169 -32 14
32 29 68 32 80 4 12 15 25 25 28 10 3 18 11 18 18 0 40 83 337 116 417 21 52
40 114 42 136 3 41 3 42 -33 48 -21 3 -193 6 -385 6 l-347 0 5 23 c6 25 425
2207 425 2213 0 2 -6 4 -14 4 -9 0 -18 -18 -24 -47 -5 -27 -41 -206 -78 -400
-61 -313 -71 -353 -88 -355 -12 -2 -38 -32 -67 -78 l-47 -75 -96 -525 c-54
-289 -102 -530 -109 -536 -27 -26 -372 -207 -435 -228 -403 -137 -861 -103
-1141 85 -98 65 -231 195 -298 290 -103 145 -180 347 -202 524 -50 405 56 739
344 1084 92 111 160 167 267 218 320 156 645 184 944 83 94 -32 232 -102 297
-151 l42 -31 -40 36 c-67 61 -234 181 -342 245 -415 246 -888 387 -1442 431
-74 5 -139 10 -143 10 -4 0 -8 49 -8 109 0 61 -4 112 -9 115 -5 3 -53 9 -107
12 -88 6 -101 4 -120 -12z"/>
<path d="M1371 3246 c-6 -7 -14 -23 -16 -35 -2 -11 -290 -522 -639 -1135 -350
-613 -636 -1117 -636 -1120 0 -3 174 -5 387 -4 356 3 388 4 391 20 3 16 -24
17 -364 18 -202 0 -369 2 -370 3 -2 2 281 495 628 1097 347 602 636 1107 641
1122 14 34 -2 58 -22 34z"/>
<path d="M6740 3179 c176 -87 290 -220 330 -384 17 -73 14 -288 -6 -355 -56
-191 -223 -352 -466 -452 -43 -18 -78 -35 -78 -39 0 -4 133 -216 296 -471 163
-255 299 -469 301 -475 4 -10 -85 -13 -423 -13 l-429 1 -270 389 c-148 215
-273 390 -276 390 -13 0 -21 -93 -9 -100 7 -4 123 -164 260 -356 l247 -349
456 -3 c447 -2 456 -2 467 18 9 17 -31 85 -290 490 -165 259 -300 474 -300
479 0 4 21 16 48 26 192 73 365 204 443 339 53 92 69 164 69 305 0 210 -37
308 -161 432 -61 62 -94 85 -170 122 -52 25 -105 49 -119 52 -14 4 22 -17 80
-46z"/>
<path d="M5916 2764 c-12 -31 -5 -34 82 -34 103 0 144 -19 169 -78 14 -32 14
-52 4 -155 -7 -66 -15 -126 -18 -135 -11 -30 38 20 53 53 7 17 15 62 19 101 9
92 -11 166 -57 211 -45 43 -76 53 -168 53 -62 0 -79 -3 -84 -16z"/>
<path d="M3696 2664 c-33 -8 -61 -16 -62 -17 -2 -2 38 -1 89 1 163 7 284 -35
372 -129 44 -47 49 -50 71 -38 13 7 24 15 24 18 0 17 -66 83 -114 115 -96 63
-244 83 -380 50z"/>
<path d="M1652 2562 c-13 -23 -20 -48 -16 -54 6 -10 43 -508 44 -590 0 -34 3
-38 25 -38 15 0 25 6 25 15 0 25 -50 679 -53 695 -2 8 -13 -4 -25 -28z"/>
<path d="M3758 2299 c-10 -5 -18 -20 -18 -33 0 -13 -18 -141 -40 -285 -22
-144 -40 -270 -40 -281 0 -19 7 -20 195 -20 219 0 202 7 186 -78 -8 -40 -7
-43 12 -40 17 2 24 15 34 63 21 105 40 95 -187 95 -110 0 -200 2 -200 5 0 2
20 129 45 281 25 151 45 282 45 290 0 16 -8 17 -32 3z"/>
<path d="M1120 1431 c-5 -11 -10 -22 -10 -25 0 -3 142 -6 315 -6 204 0 315 -4
315 -10 0 -18 60 -415 65 -427 3 -10 87 -13 370 -13 358 0 365 0 365 20 0 20
-7 20 -344 20 l-344 0 -6 28 c-3 15 -22 115 -42 222 -19 107 -36 195 -37 196
-1 1 -145 4 -319 8 -307 6 -318 5 -328 -13z"/>
</g>
</svg>
